{
  "accessors": [
    {
      "bufferView": 2,
      "componentType": 5126,
      "count": 1479,
      "max": [
        1.555308699607849e-07,
        6.810378074645996,
        6.776529788970947
      ],
      "min": [
        -14.59554386138916,
        -6.4612040519714355,
        -5.170678615570068
      ],
      "type": "VEC3"
    },
    {
      "bufferView": 2,
      "byteOffset": 17748,
      "componentType": 5126,
      "count": 1479,
      "max": [
        0.1103886067867279,
        0.9944424629211426,
        0.989098072052002
      ],
      "min": [
        -0.9897682070732117,
        -0.9982572793960571,
        -0.9887104034423828
      ],
      "type": "VEC3"
    },
    {
      "bufferView": 3,
      "componentType": 5126,
      "count": 1479,
      "max": [
        0.890614926815033,
        0.9991852045059204,
        1.0,
        1.0
      ],
      "min": [
        -0.8655111193656921,
        -0.9990158081054688,
        -0.9996786117553711,
        1.0
      ],
      "type": "VEC4"
    },
    {
      "bufferView": 1,
      "componentType": 5126,
      "count": 1479,
      "max": [
        0.13479496538639069,
        0.9612621068954468
      ],
      "min": [
        0.07182542234659195,
        0.03419920802116394
      ],
      "type": "VEC2"
    },
    {
      "bufferView": 0,
      "componentType": 5125,
      "count": 4392,
      "type": "SCALAR"
    }
  ],
  "asset": {
    "extras": {
      "author": "assetfactory (https://sketchfab.com/assetfactory)",
      "license": "SKETCHFAB Standard (https://sketchfab.com/licenses)",
      "source": "https://sketchfab.com/3d-models/marine-plant-08e8617db78c457f8b218971e6055e99",
      "title": "Marine plant"
    },
    "generator": "Sketchfab-16.33.0",
    "version": "2.0"
  },
  "bufferViews": [
    {
      "buffer": 0,
      "byteLength": 17568,
      "name": "floatBufferViews",
      "target": 34963
    },
    {
      "buffer": 0,
      "byteLength": 11832,
      "byteOffset": 17568,
      "byteStride": 8,
      "name": "floatBufferViews",
      "target": 34962
    },
    {
      "buffer": 0,
      "byteLength": 35496,
      "byteOffset": 29400,
      "byteStride": 12,
      "name": "floatBufferViews",
      "target": 34962
    },
    {
      "buffer": 0,
      "byteLength": 23664,
      "byteOffset": 64896,
      "byteStride": 16,
      "name": "floatBufferViews",
      "target": 34962
    }
  ],
  "buffers": [
    {
      "byteLength": 88560,
      "uri": "scene.bin"
    }
  ],
  "images": [
    {
      "uri": "textures/blade_baseColor.jpeg"
    },
    {
      "uri": "textures/blade_normal.jpeg"
    }
  ],
  "materials": [
    {
      "doubleSided": true,
      "name": "blade",
      "normalTexture": {
        "index": 1
      },
      "pbrMetallicRoughness": {
        "baseColorTexture": {
          "index": 0
        },
        "metallicFactor": 0.0,
        "roughnessFactor": 0.5
      }
    }
  ],
  "meshes": [
    {
      "name": "plant_blade_0",
      "primitives": [
        {
          "attributes": {
            "NORMAL": 1,
            "POSITION": 0,
            "TANGENT": 2,
            "TEXCOORD_0": 3
          },
          "indices": 4,
          "material": 0,
          "mode": 4
        }
      ]
    }
  ],
  "nodes": [
    {
      "children": [
        1
      ],
      "matrix": [
        1.0,
        0.0,
        0.0,
        0.0,
        0.0,
        2.220446049250313e-16,
        -1.0,
        0.0,
        0.0,
        1.0,
        2.220446049250313e-16,
        0.0,
        0.0,
        0.0,
        0.0,
        1.0
      ],
      "name": "Sketchfab_model"
    },
    {
      "children": [
        2
      ],
      "matrix": [
        0.009999999776482582,
        0.0,
        0.0,
        0.0,
        0.0,
        0.0,
        0.009999999776482582,
        0.0,
        0.0,
        -0.009999999776482582,
        0.0,
        0.0,
        0.0,
        0.0,
        0.0,
        1.0
      ],
      "name": "6fe63dadc3524aacbc9361fc77fdd3c4.fbx"
    },
    {
      "children": [
        3
      ],
      "name": "RootNode"
    },
    {
      "children": [
        4
      ],
      "matrix": [
        7.549789970973109e-06,
        -99.99999999999953,
        5.960462345910855e-06,
        0.0,
        -2.821299644462094e-05,
        -5.9604644775390625e-06,
        -99.99999999999585,
        0.0,
        99.99999999999574,
        7.549788288985226e-06,
        -2.8212996894261266e-05,
        0.0,
        0.0,
        0.0,
        0.0,
        1.0
      ],
      "name": "plant"
    },
    {
      "mesh": 0,
      "name": "plant_blade_0"
    }
  ],
  "samplers": [
    {
      "magFilter": 9729,
      "minFilter": 9987,
      "wrapS": 10497,
      "wrapT": 10497
    }
  ],
  "scene": 0,
  "scenes": [
    {
      "name": "Sketchfab_Scene",
      "nodes": [
        0
      ]
    }
  ],
  "textures": [
    {
      "sampler": 0,
      "source": 0
    },
    {
      "sampler": 0,
      "source": 1
    }
  ]
}
